#!OML:ASF H:\Terrain\Patient Classification 1\Walking\steve\steve.ASF
:FULLY-SPECIFIED
:DEGREES
62
root 7.58418 15.6682 -27.2247 3.9952 -5.46583 3.55526
lowerback 1.52404 1.90314 -4.47366
upperback -2.77896 2.36412 -0.761782
thorax -3.8738 1.29511 1.59912
lowerneck -9.56047 -0.0705884 -3.39436
upperneck 15.4008 -0.194784 3.93494
head 6.24869 0.0216011 1.79705
rclavicle 8.31634e-016 -2.5842e-015
rhumerus -42.7367 -10.7778 -81.8217
rradius 26.2608
rwrist -3.84253
rhand -20.6696 -37.7653
rfingers 7.12502
rthumb 5.69335 -67.6688
lclavicle 8.31634e-016 -2.5842e-015
lhumerus -28.8363 6.75056 83.456
lradius 24.9406
lwrist 11.4936
lhand -20.33 -8.15723
lfingers 7.12502
lthumb 6.02123 21.7372
rfemur -34.6492 2.32647 19.5859
rtibia 62.9123
rfoot -14.3548 0.590658
rtoes -14.2314
lfemur -12.5032 1.23223 -27.9521
ltibia 29.3459
lfoot -16.9793 -4.10175
ltoes -4.53913
63
root 7.58436 15.6616 -27.0105 4.13241 -4.9968 3.77338
lowerback 1.51775 1.7123 -4.67165
upperback -2.87225 2.09956 -0.773693
thorax -3.95851 1.17208 1.70976
lowerneck -9.16531 -0.0695688 -3.5107
upperneck 15.0653 -0.179275 3.93859
head 6.07354 0.0188983 1.81411
rclavicle -1.53701e-014 1.83876e-014
rhumerus -44.1427 -12.289 -80.3404
rradius 24.9149
rwrist -2.02631
rhand -19.5761 -37.775
rfingers 7.12502
rthumb 6.74905 -67.6474
lclavicle -1.53701e-014 1.83876e-014
lhumerus -27.6653 4.83854 84.1617
lradius 26.4271
lwrist 13.2177
lhand -20.8712 -7.54906
lfingers 7.12502
lthumb 5.49866 22.3596
rfemur -35.6793 1.77587 19.6172
rtibia 60.5549
rfoot -14.9182 -0.162985
rtoes -15.2603
lfemur -11.5684 1.53673 -28.2746
ltibia 28.8819
lfoot -17.2434 -4.45936
ltoes -6.35353
64
root 7.57899 15.6585 -26.7904 4.16195 -4.66479 3.73774
lowerback 1.47826 1.60773 -4.71291
upperback -2.8686 1.96354 -0.699453
thorax -3.92762 1.1063 1.81815
lowerneck -8.90504 -0.0699019 -3.32048
upperneck 14.9769 -0.19601 3.8218
head 6.00133 0.0101186 1.74245
rclavicle -2.98581e-014 -1.43125e-014
rhumerus -45.5719 -13.4192 -78.9889
rradius 23.805
rwrist -0.526092
rhand -19.179 -38.5898
rfingers 7.12502
rthumb 7.13236 -68.4496
lclavicle -2.98581e-014 -1.43125e-014
lhumerus -26.5038 2.83383 84.8165
lradius 27.7672
lwrist 14.6355
lhand -22.3816 -8.63635
lfingers 7.12502
lthumb 4.0403 21.3051
rfemur -36.3928 1.42519 19.9173
rtibia 57.9991
rfoot -15.6281 -0.847605
rtoes -18.6925
lfemur -10.3027 1.94894 -28.2539
ltibia 28.1488
lfoot -17.5075 -4.927
ltoes -6.85625
65
root 7.57189 15.6576 -26.5692 4.18501 -4.45999 3.7569
lowerback 1.52103 1.58646 -4.88249
upperback -2.90862 1.92944 -0.588047
thorax -4.00202 1.09848 2.02759
lowerneck -8.7678 -0.140754 -3.288
upperneck 15.0455 -0.297914 3.79037
head 6.00303 -0.0410585 1.71941
rclavicle 1.36354e-015 1.61016e-014
rhumerus -47.0652 -14.6513 -77.2906
rradius 22.7242
rwrist 0.873187
rhand -17.7846 -39.8695
rfingers 7.12502
rthumb 8.47823 -69.6793
lclavicle 1.36354e-015 1.61016e-014
lhumerus -25.2875 1.07093 85.2927
lradius 29.1297
lwrist 16.5339
lhand -21.6768 -8.74678
lfingers 7.12502
lthumb 4.72087 21.1806
rfemur -37.0399 1.34929 20.0566
rtibia 55.2914
rfoot -16.1903 -0.987433
rtoes -17.8219
lfemur -8.91583 2.2397 -28.2568
ltibia 27.1832
lfoot -17.533 -5.66275
ltoes -4.02608
66
root 7.56772 15.6661 -26.3498 4.15003 -4.15693 3.99744
lowerback 1.60212 1.42644 -5.22948
upperback -2.87242 1.70099 -0.550611
thorax -4.00724 0.995369 2.27123
lowerneck -9.14319 -0.186853 -3.13422
upperneck 15.3533 -0.345596 3.56737
head 6.16696 -0.0691668 1.62287
rclavicle -5.77718e-015 -1.98785e-015
rhumerus -48.3932 -16.644 -74.8731
rradius 21.1913
rwrist 3.1229
rhand -16.2215 -39.246
rfingers 7.12502
rthumb 9.9865 -68.9891
lclavicle -5.77718e-015 -1.98785e-015
lhumerus -24.0869 -0.93284 85.5797
lradius 30.6683
lwrist 18.7934
lhand -21.6763 -8.40555
lfingers 7.12502
lthumb 4.72137 21.5218
rfemur -37.5015 1.19202 19.9002
rtibia 52.4145
rfoot -16.6383 -0.477595
rtoes -11.1176
lfemur -7.42882 2.49454 -28.4844
ltibia 26.0334
lfoot -17.4836 -6.18932
ltoes -3.40088
67
root 7.56025 15.6839 -26.1338 4.1982 -3.69312 4.17727
lowerback 1.52855 1.20471 -5.52606
upperback -2.79045 1.40289 -0.530155
thorax -3.86591 0.851378 2.47753
lowerneck -9.50303 -0.161803 -2.88839
upperneck 15.5934 -0.312891 3.36156
head 6.30418 -0.0522152 1.52198
rclavicle 9.0975e-015 4.96962e-015
rhumerus -49.8595 -18.7848 -72.2196
rradius 19.6105
rwrist 5.38849
rhand -17.8102 -36.6054
rfingers 7.12502
rthumb 8.45349 -66.4162
lclavicle 9.0975e-015 4.96962e-015
lhumerus -22.9684 -2.9387 85.6575
lradius 32.4529
lwrist 20.907
lhand -22.1646 -8.45613
lfingers 7.12502
lthumb 4.24984 21.4812
rfemur -37.9374 0.872357 19.8216
rtibia 49.3544
rfoot -17.0903 -0.128972
rtoes -5.56315
lfemur -6.03177 2.74003 -28.5978
ltibia 24.7831
lfoot -17.4735 -6.39296
ltoes -6.54479
68
root 7.55082 15.6912 -25.9165 4.35415 -3.19801 4.29216
lowerback 1.33866 1.04882 -5.77128
upperback -2.72812 1.20315 -0.49516
thorax -3.68382 0.753845 2.66576
lowerneck -9.33132 -0.166298 -2.94524
upperneck 15.3143 -0.336108 3.53107
head 6.18673 -0.0550631 1.58095
rclavicle 1.09813e-014 8.94531e-015
rhumerus -51.6945 -20.6925 -69.4477
rradius 18.4447
rwrist 7.75655
rhand -19.4656 -34.4846
rfingers 7.12502
rthumb 6.85569 -64.3536
lclavicle 1.09813e-014 8.94531e-015
lhumerus -21.647 -4.1912 85.6598
lradius 33.7364
lwrist 21.8254
lhand -23.1272 -9.15054
lfingers 7.12502
lthumb 3.32029 20.8033
rfemur -38.4856 0.433083 19.8418
rtibia 46.1552
rfoot -17.0574 -0.202682
rtoes -4.63019
lfemur -4.73217 2.87065 -28.6083
ltibia 23.5357
lfoot -17.2166 -6.83168
ltoes -7.07197
69
root 7.54308 15.68 -25.6975 4.37254 -2.74777 4.35141
lowerback 1.41964 0.939046 -5.91269
upperback -2.67771 1.04957 -0.456742
thorax -3.66764 0.680506 2.79157
lowerneck -9.47742 -0.200905 -2.99478
upperneck 15.3325 -0.391601 3.64954
head 6.21987 -0.074179 1.62299
rclavicle -2.54134e-014 1.19271e-015
rhumerus -53.7795 -22.4742 -66.4105
rradius 17.7863
rwrist 11.0098
rhand -18.3937 -35.0808
rfingers 7.12502
rthumb 7.89037 -64.9135
lclavicle -2.54134e-014 1.19271e-015
lhumerus -19.9821 -4.10936 85.4461
lradius 34.254
lwrist 21.88
lhand -22.9584 -10.6124
lfingers 7.12502
lthumb 3.48327 19.3389
rfemur -38.8293 0.0207032 19.9346
rtibia 42.8823
rfoot -16.4605 -0.458973
rtoes -7.77657
lfemur -3.2083 2.83704 -28.5513
ltibia 22.2532
lfoot -16.6232 -7.55098
ltoes -3.73911
70
root 7.53608 15.6682 -25.4787 4.35567 -2.25502 4.30801
lowerback 1.58662 0.83924 -5.88798
upperback -2.66565 0.907036 -0.420818
thorax -3.73644 0.611041 2.81994
lowerneck -9.67734 -0.252457 -2.9047
upperneck 15.4735 -0.466059 3.59587
head 6.30181 -0.10723 1.5865
rclavicle 7.12286e-015 1.13307e-014
rhumerus -55.9495 -23.9886 -63.4637
rradius 17.4449
rwrist 13.6515
rhand -16.8785 -36.754
rfingers 7.12502
rthumb 9.35254 -66.5266
lclavicle 7.12286e-015 1.13307e-014
lhumerus -18.3636 -4.04314 85.144
lradius 34.7251
lwrist 22.4215
lhand -21.4592 -12.4115
lfingers 7.12502
lthumb 4.93095 17.5112
rfemur -39.0072 -0.319447 20.0839
rtibia 39.6661
rfoot -15.9532 -0.520862
rtoes -9.40018
lfemur -1.60382 3.09567 -28.3211
ltibia 20.8455
lfoot -15.9478 -8.52946
ltoes -2.30502
71
root 7.53068 15.6621 -25.2554 4.49192 -1.78138 4.34112
lowerback 1.48731 0.711928 -5.90152
upperback -2.70026 0.743558 -0.388495
thorax -3.70162 0.53041 2.87022
lowerneck -9.32498 -0.308146 -2.92577
upperneck 15.0895 -0.535547 3.57972
head 6.1216 -0.147121 1.5756
rclavicle -4.38336e-015 -1.09332e-014
rhumerus -58.364 -26.0387 -59.6044
rradius 16.6809
rwrist 16.6565
rhand -16.0043 -38.3731
rfingers 7.12502
rthumb 10.196 -68.106
lclavicle -4.38336e-015 -1.09332e-014
lhumerus -17.186 -5.20763 84.9873
lradius 35.8532
lwrist 23.1914
lhand -21.2967 -13.3717
lfingers 7.12502
lthumb 5.08786 16.5472
rfemur -39.3293 -0.579032 20.0644
rtibia 36.5816
rfoot -15.7423 -0.1875
rtoes -6.04859
lfemur -0.127276 3.49791 -28.15
ltibia 19.3679
lfoot -15.444 -9.4947
ltoes -2.80501
72
root 7.52385 15.6459 -25.0361 4.71422 -1.31939 4.38951
lowerback 1.3167 0.583341 -5.93317
upperback -2.74135 0.582596 -0.357316
thorax -3.63344 0.45072 2.92941
lowerneck -8.88208 -0.356979 -2.97012
upperneck 14.5724 -0.596027 3.59267
head 5.88443 -0.182802 1.57798
rclavicle 6.61503e-015 -1.0138e-014
rhumerus -60.8456 -27.6786 -55.8846
rradius 15.9632
rwrist 19.5405
rhand -15.7094 -40.3565
rfingers 7.12502
rthumb 10.4805 -70.0753
lclavicle 6.61503e-015 -1.0138e-014
lhumerus -16.0008 -6.66164 84.8915
lradius 37.1107
lwrist 23.6556
lhand -23.0607 -13.0956
lfingers 7.12502
lthumb 3.38446 16.8572
rfemur -39.8432 -0.893485 20.0662
rtibia 33.6663
rfoot -15.2413 0.581444
rtoes -1.71616
lfemur 1.26637 3.33263 -28.0685
ltibia 17.9043
lfoot -14.9804 -9.97758
ltoes -2.11834
73
root 7.51198 15.6286 -24.8277 4.99454 -0.65023 4.40665
lowerback 1.18654 0.403731 -5.99467
upperback -2.75299 0.350868 -0.32889
thorax -3.55066 0.335475 3.00471
lowerneck -8.44195 -0.373391 -2.96627
upperneck 13.9372 -0.640789 3.76725
head 5.61163 -0.197038 1.6243
rclavicle -9.95069e-015 -4.37326e-015
rhumerus -63.0077 -28.5578 -53.1153
rradius 15.5806
rwrist 21.3696
rhand -16.3055 -40.4126
rfingers 7.12502
rthumb 9.9054 -70.1596
lclavicle -9.95069e-015 -4.37326e-015
lhumerus -14.5779 -7.63721 84.6963
lradius 38.1184
lwrist 24.2615
lhand -24.8407 -12.2298
lfingers 7.12502
lthumb 1.66545 17.7434
rfemur -40.487 -1.29205 20.113
rtibia 31.0187
rfoot -14.5153 0.953496
rtoes -0.844057
lfemur 2.57448 3.1084 -27.8891
ltibia 16.3581
lfoot -14.3996 -10.3919
ltoes -1.75142
74
root 7.4994 15.6218 -24.6144 5.21405 0.0473582 4.39359
lowerback 1.04122 0.218352 -6.05066
upperback -2.73721 0.116206 -0.222646
thorax -3.42998 0.217994 3.15677
lowerneck -8.06627 -0.422344 -3.16631
upperneck 13.4025 -0.700814 3.94555
head 5.38387 -0.229027 1.70519
rclavicle -4.19894e-015 -5.36719e-015
rhumerus -65.8081 -30.2657 -48.5104
rradius 14.9576
rwrist 24.6281
rhand -16.4608 -39.0292
rfingers 7.12502
rthumb 9.75563 -68.7832
lclavicle -4.19894e-015 -5.36719e-015
lhumerus -13.3678 -8.35826 84.5279
lradius 39.2519
lwrist 24.8358
lhand -25.6811 -12.4987
lfingers 7.12502
lthumb 0.853754 17.4794
rfemur -41.0524 -1.61768 20.139
rtibia 28.7222
rfoot -14.2301 0.112696
rtoes -4.86509
lfemur 3.87114 3.18951 -27.6024
ltibia 14.9871
lfoot -13.9652 -10.8427
ltoes -3.03622
75
root 7.4908 15.6026 -24.3888 5.43394 0.605506 4.42725
lowerback 0.833509 0.101819 -6.11379
upperback -2.77424 -0.0250846 -0.147888
thorax -3.33736 0.14856 3.27526
lowerneck -7.82955 -0.507455 -3.26575
upperneck 13.0907 -0.803678 3.96573
head 5.25102 -0.285908 1.71872
rclavicle -2.16761e-015 2.18663e-015
rhumerus -68.9937 -31.6986 -43.5993
rradius 14.4473
rwrist 28.0114
rhand -15.5549 -39.3833
rfingers 7.12502
rthumb 10.6295 -69.0945
lclavicle -2.16761e-015 2.18663e-015
lhumerus -12.2633 -9.09611 84.3479
lradius 40.264
lwrist 25.1149
lhand -25.8786 -13.7256
lfingers 7.12502
lthumb 0.662975 16.2531
rfemur -41.5717 -2.21737 20.2828
rtibia 26.6673
rfoot -13.7298 0.0186696
rtoes -7.36068
lfemur 5.18518 3.62127 -27.2962
ltibia 13.6838
lfoot -12.9196 -12.0473
ltoes -0.671015
